<?xml version="1.0" encoding="utf-8"?>
<!-- Generator: Adobe Illustrator 17.1.0, SVG Export Plug-In . SVG Version: 6.00 Build 0)  -->
<svg version="1.2" baseProfile="tiny" id="Layer_1" xmlns="http://www.w3.org/2000/svg" xmlns:xlink="http://www.w3.org/1999/xlink"
	 x="0px" y="0px" viewBox="180 106 280 268" xml:space="preserve">
<g>
	<path fill="#423F44" d="M448.4,240c0-70.9-57.5-128.3-128.3-128.3c-70.9,0-128.3,57.5-128.3,128.3c0,70.9,57.5,128.3,128.3,128.3
		C391,368.3,448.4,310.8,448.4,240z"/>
	<path fill="#F5E77E" d="M435.7,240c0-63.8-51.7-115.6-115.6-115.6c-63.8,0-115.6,51.7-115.6,115.6c0,63.8,51.7,115.6,115.6,115.6
		C383.9,355.6,435.7,303.8,435.7,240z"/>
</g>
<g>
	<g>
		<path fill="#803922" d="M365.7,242.7c-0.5,0-1,0-1.5,0c-0.9,11.4-2.7,19.2-5.2,26.4c-3.3,9.2-7,18.4-22.2,27.4
			c3.2-0.4,9.8-0.4,18.6-8.6c10.6-9.8,15.7-24.9,16.3-44.1C370.3,243.2,368,242.8,365.7,242.7"/>
		<path fill="#009548" d="M290.5,237.7c3.7,1.8,6.8,3.5,10.5,6.3c3.5,2.6,10,8.1,14.7,15.7c5,7.7,7.8,17,8.2,26.1
			c4.8-11.6,5.7-26.4,2.4-40.7c-0.1-0.3-0.1-0.5-0.2-0.8c-2.7-10.5-9.1-19.1-13.9-24.4c-4.5-4.9-9.6-9.2-14.7-12.2
			c-3.6-2.2-6.6-3.4-9-3.7c-4.8,6.6-7.2,16.5-7.3,30.3C284,234.9,287.2,236,290.5,237.7"/>
		<path fill="#F58A27" d="M318.8,215c2.2,2.6,4.1,5.4,5.9,8.2c3.6,5.2,7,11.5,8.9,18.8c0.1,0.3,0.1,0.6,0.2,0.8
			c2.8,11.7,2.9,25.1,0.4,36c5-9.4,7.2-23.1,6.8-38.5l0,0c-0.1-2.8-0.3-5.7-0.6-8.6c-1.2-10.6-3.9-21.2-7.9-30.6
			c-3.6-8.4-8.5-15.5-13.7-19.6c-5.7,4.7-10.8,12-14.2,20.5C309.6,205.3,314.5,209.9,318.8,215"/>
		<path fill="#005EAC" d="M274.1,240.5c-1.7,0-3.2,0.3-4.6,0.8c-3.2,13.2,4.1,33.7,12.7,44c7.1,8.5,19.7,14.7,30,14.7
			c1.3,0,2.5-0.1,3.7-0.3l0.1-0.1c0,0,0,0,0.1-0.1c2.8-11.4,0.3-24.9-6.3-35.2c-4.3-7-10.3-12.1-13.5-14.5c-3.4-2.6-6.3-4.2-9.7-5.9
			c-3.9-1.9-7.4-3.1-10.5-3.4C275.3,240.5,274.7,240.5,274.1,240.5"/>
		<path fill="#EC1C24" d="M352.8,199.7c-2.6,0.8-8.6,3.8-11.2,5.3l0.4,1.4c3.1,9.7,6.3,19.8,6.5,29.9c0.1,3,0,5.9-0.2,8.6
			c-0.2,3.2-0.2,6.1-0.9,11c-0.7,4.8-3.2,23.5-10.8,32.1c8.2-4.4,14.1-13.2,18.9-29.6c2.2-8.4,3.2-13.8,3.8-25.3
			C359.2,219.3,357.1,208.3,352.8,199.7"/>
	</g>
	<g>
		<path fill="#423F44" d="M228.4,220.2l-1.5,5.7l-3.9-1.1l4.3-15.8l3.9,1l-1.5,5.7l16.1,4.3l-1.2,4.4L228.4,220.2z"/>
		<path fill="#423F44" d="M248.9,194.1c4.3,2.3,6.1,6.7,3.3,11.7c-2.7,5.1-7.3,6-11.6,3.6l-11.2-6l2.2-4l11,6
			c2.2,1.2,4.8,0.6,5.9-1.5c1.1-2.1,0.3-4.6-2-5.8l-11-6l2.2-4L248.9,194.1z"/>
		<path fill="#423F44" d="M247.3,176.2l2.6-2.7l21.2,7.6l-3.5,3.7l-4.4-1.7l-5.5,5.9l2,4.3l-3.4,3.7L247.3,176.2z M252.9,179.1
			l3,6.2l3.5-3.7L252.9,179.1z"/>
		<path fill="#423F44" d="M261,163.6l3.8-2.5l9.2,13.7l7-4.7l2.4,3.5l-10.8,7.3L261,163.6z"/>
		<path fill="#423F44" d="M283.5,150.9l3.5-1.4l15.8,16.1l-4.8,1.8l-3.2-3.4l-7.5,2.9v4.7l-4.7,1.8L283.5,150.9z M287.3,155.9v6.9
			l4.7-1.8L287.3,155.9z"/>
		<path fill="#423F44" d="M302.8,149.4l-5.8,1l-0.7-4l16.1-2.7l0.7,4l-5.8,1L310,165l-4.5,0.8L302.8,149.4z"/>
		<path fill="#423F44" d="M317.1,143.7l4.6-0.1l0.3,20.7l-4.6,0.1L317.1,143.7z"/>
		<path fill="#423F44" d="M329.1,143.4l6.1,1.1l6.1,15.7h0.1l2.6-14.1l4.5,0.8l-3.7,20.3l-5.9-1.1l-6.3-16.1h-0.1l-2.6,14.5
			l-4.5-0.8L329.1,143.4z"/>
		<path fill="#423F44" d="M366.1,154l3.9,2.4l-4.1,6.5l7.5,4.7l4.1-6.5l3.9,2.4l-11,17.5l-3.9-2.4l4.8-7.6l-7.5-4.7l-4.8,7.6
			l-3.9-2.4L366.1,154z"/>
		<path fill="#423F44" d="M386.6,168.4l3.3,3.1l-14,15.2l-3.3-3.1L386.6,168.4z"/>
		<path fill="#423F44" d="M394.7,176.2l2.9,3.5L384.8,190l5.3,6.6l-3.3,2.6l-8.2-10.1L394.7,176.2z"/>
		<path fill="#423F44" d="M405.9,191.2l2.1,4l-14.5,7.8l4,7.5l-3.7,2l-6.1-11.5L405.9,191.2z"/>
		<path fill="#423F44" d="M412.3,219.3c0.7-1,0.7-2.5,0.4-3.6c-0.4-1.2-1.5-2.8-2.9-2.3c-3.6,1.1,1.5,9.5-5.5,11.6
			c-4.4,1.3-7.6-1.6-8.8-5.7c-0.8-2.5-0.7-5,0.5-7.4l4.4,2.1c-0.9,1.3-1.2,2.9-0.7,4.4c0.4,1.4,1.6,2.8,3,2.4
			c3.6-1.1-1.1-9.8,5.5-11.8c4.2-1.3,7.5,1.7,8.7,5.6c0.7,2.2,0.7,4.6-0.2,6.7L412.3,219.3z"/>
	</g>
	<g>
		<path fill="#423F44" d="M239.5,236.8l-0.1,4.8c0,2.7-0.9,4.9-4,4.9c-3,0-3.9-2.1-3.9-4.9v-2.1l-5.1-0.1v-2.9L239.5,236.8z
			 M234,239.6v1.9c0,1,0.3,2,1.5,2c1.3,0,1.5-1.3,1.6-2.4v-1.5H234z"/>
		<path fill="#423F44" d="M239.8,250.9l0.3,2.3l-12.2,7.1l-0.4-3.2l2.6-1.4l-0.6-5l-2.8-0.8l-0.4-3.1L239.8,250.9z M236.2,252.4
			l-4.2-1.1l0.4,3.1L236.2,252.4z"/>
		<path fill="#423F44" d="M241.1,259.5l1.3,4.8c0.7,2.6,0.4,5-2.5,5.7c-1.7,0.5-3.4-0.1-4.2-1.8l-4.4,4.6l-0.9-3.3l4.3-4l-0.4-1.4
			l-5,1.4l-0.8-2.7L241.1,259.5z M236.7,263.7l0.4,1.6c0.3,1,0.7,2.3,2,1.9c1.3-0.3,1.1-1.5,0.9-2.5l-0.5-1.8L236.7,263.7z"/>
		<path fill="#423F44" d="M244.2,270.5l1.2,2.6l-4.9,2.2l7,2.4l1.5,3.4l-7.8-2.8l-3.8,8.5l-1.6-3.7l3.5-7.3l-5.6,2.5l-1.2-2.6
			L244.2,270.5z"/>
		<path fill="#423F44" d="M250.3,300.5l-0.7,4.2l-2.1-2.8l0.3-1.6c-1.5-0.2-2.6-0.9-3.5-2.1c-1.4-1.9-1.8-4.4,0.3-6
			c1.3-1,3.1-0.9,4.5,0.1c0.2-1.2,0.4-2.1,1.4-2.9c1.9-1.4,3.8-0.4,5.1,1.2c1.2,1.6,1.5,3.6-0.2,4.9c-1.2,0.9-2.8,0.7-4.1,0.1
			l-0.4,2.4h2.1l1.9,2.5L250.3,300.5z M248.9,294.5c-0.8-0.3-1.6-0.6-2.4-0.1c-0.8,0.6-0.8,1.6-0.2,2.3c0.5,0.7,1.2,0.9,2,1
			L248.9,294.5z M252.1,291.6c-0.5,0.4-0.6,1.3-0.6,1.9c0.6,0.2,1.6,0.6,2.2,0.2c0.6-0.5,0.6-1.2,0.2-1.7
			C253.4,291.3,252.7,291.1,252.1,291.6z"/>
		<path fill="#423F44" d="M265.1,301.8l3.9,3.2c2,1.7,3.2,3.8,1.2,6.1c-1.2,1.4-2.8,1.9-4.4,0.9l-1,6.3l-2.6-2.2l1.2-5.7l-1.1-0.9
			l-3.3,4l-2.2-1.8L265.1,301.8z M263.8,307.7l1.3,1.1c0.8,0.7,1.9,1.5,2.8,0.4c0.8-1,0.1-1.9-0.7-2.6l-1.4-1.2L263.8,307.7z"/>
		<path fill="#423F44" d="M274,309l7.5,4.6l-1.4,2.2l-5.1-3.1l-1.3,2.1l4.8,3l-1.4,2.2l-4.8-3l-1.4,2.2l5.3,3.3l-1.4,2.2l-7.8-4.8
			L274,309z"/>
		<path fill="#423F44" d="M289.5,321c-0.2-0.8-0.8-1.5-1.8-2c-2-0.9-4.1,0.1-5.1,2.3c-1,2.2-0.2,4.5,1.7,5.3c1.1,0.5,2.1,0.4,3-0.2
			l1.5,2.6c-1.6,1-3.6,0.9-5.2,0.2c-3.7-1.6-5.3-5.2-3.7-9c1.7-3.8,5.4-5,9.1-3.4c1.3,0.6,2.8,1.8,3.2,3.5L289.5,321z"/>
		<path fill="#423F44" d="M294.1,319.2l4.8,1.3c2.6,0.7,4.5,2.2,3.7,5.1c-0.5,1.7-1.8,2.8-3.6,2.7l1.7,6.2l-3.3-0.9l-1.2-5.7
			l-1.4-0.4l-1.4,5l-2.8-0.8L294.1,319.2z M295.4,325.1l1.6,0.4c1,0.3,2.3,0.6,2.7-0.7c0.3-1.3-0.7-1.8-1.7-2l-1.8-0.5L295.4,325.1z
			"/>
		<path fill="#423F44" d="M305.2,322.1l8.7,1.2l-0.3,2.6l-5.9-0.8l-0.3,2.4l5.6,0.7l-0.3,2.6l-5.6-0.7l-0.4,2.6l6.2,0.8l-0.3,2.6
			l-9-1.2L305.2,322.1z"/>
		<path fill="#423F44" d="M320.3,323.4l2.4-0.1l6.1,12.8l-3.2,0.1l-1.2-2.7l-5,0.2l-1,2.8l-3.1,0.1L320.3,323.4z M321.5,327.1
			l-1.4,4.1l3.2-0.1L321.5,327.1z"/>
		<path fill="#423F44" d="M330.8,325.2l-3.7,0.5l-0.4-2.5l10.1-1.5l0.4,2.5l-3.7,0.5L335,335l-2.8,0.4L330.8,325.2z"/>
		<path fill="#423F44" d="M337.9,321.4l2.8-0.7l3.1,12.6L341,334L337.9,321.4z"/>
		<path fill="#423F44" d="M348.7,317.8c3.8-1.4,7.5,0,8.9,3.9c1.5,3.9-0.3,7.4-4.1,8.8c-3.8,1.4-7.5,0-8.9-3.9
			C343.1,322.8,344.9,319.2,348.7,317.8z M352.5,328.1c2.3-0.9,3.1-3.1,2.3-5.3c-0.9-2.3-3-3.3-5.2-2.5c-2.3,0.9-3.1,3.1-2.3,5.3
			C348.1,327.9,350.3,328.9,352.5,328.1z"/>
		<path fill="#423F44" d="M356.4,315l3.3-2l9.4,4.9l0,0l-4.6-7.7l2.5-1.5l6.7,11.1l-3.2,1.9l-9.6-5l0,0l4.8,7.9l-2.4,1.5L356.4,315z
			"/>
		<path fill="#423F44" d="M373.1,303.8l3-3c3-2.9,6.7-4.2,10-0.8c3,3,2.1,7-0.6,9.7l-3.3,3.3L373.1,303.8z M382.4,309.1l1.1-1
			c1.9-1.9,2.6-4,0.5-6.1c-1.8-1.8-4.1-1.2-5.8,0.5l-1.2,1.2L382.4,309.1z"/>
		<path fill="#423F44" d="M382.4,294l1.8-2.2l10.1,8.1l-1.8,2.2L382.4,294z"/>
		<path fill="#423F44" d="M391.8,286.4c-0.7,0.1-1.5,0.7-1.8,1.3c-0.4,0.7-0.7,1.8,0.1,2.3c2,1.3,4-4.5,7.8-2.1
			c2.4,1.6,2.3,4.3,0.8,6.5c-0.9,1.4-2.1,2.3-3.8,2.8l-0.8-2.9c1-0.1,1.9-0.6,2.4-1.4s0.7-1.9,0-2.4c-2-1.3-4.2,4.5-7.9,2.1
			c-2.3-1.5-2.2-4.3-0.8-6.4c0.8-1.2,1.9-2.2,3.3-2.6L391.8,286.4z"/>
		<path fill="#423F44" d="M394.5,280.2l-1.6,3.3l-2.3-1.1l4.5-9.2l2.3,1.1l-1.6,3.3l9.4,4.6l-1.2,2.6L394.5,280.2z"/>
		<path fill="#423F44" d="M395.4,272.4l1.6-4.8c0.8-2.5,2.4-4.3,5.3-3.4c1.7,0.6,2.8,1.9,2.5,3.8l6.2-1.4l-1.1,3.2l-5.8,0.9
			l-0.4,1.3l4.9,1.6l-0.9,2.7L395.4,272.4z M401.4,271.4l0.5-1.6c0.3-1,0.7-2.3-0.6-2.7c-1.2-0.4-1.8,0.6-2.1,1.6l-0.6,1.8
			L401.4,271.4z"/>
		<path fill="#423F44" d="M398.8,261.3l0.6-2.8l12.6,2.8l-0.6,2.8L398.8,261.3z"/>
		<path fill="#423F44" d="M404.2,248.3c-0.7,0.5-1.2,1.3-1.3,2.3c-0.2,2.1,1.3,3.9,3.7,4.2c2.4,0.3,4.3-1.1,4.5-3.2
			c0.1-1.2-0.3-2.1-1.1-2.8l2-2.2c1.4,1.2,1.9,3.1,1.7,4.9c-0.4,4-3.4,6.7-7.5,6.2s-6.5-3.7-6-7.7c0.2-1.4,0.8-3.2,2.4-4.1
			L404.2,248.3z"/>
		<path fill="#423F44" d="M403.5,241.5l0.1,3.7l-2.5,0.1l-0.3-10.2l2.5-0.1l0.1,3.7l10.4-0.4l0.1,2.9L403.5,241.5z"/>
	</g>
</g>
</svg>
