<?xml version="1.0" encoding="utf-8"?>
<!-- Generator: Adobe Illustrator 17.1.0, SVG Export Plug-In . SVG Version: 6.00 Build 0)  -->
<svg version="1.2" baseProfile="tiny" id="Layer_1" xmlns="http://www.w3.org/2000/svg" xmlns:xlink="http://www.w3.org/1999/xlink"
	 x="0px" y="0px" viewBox="0 0 640 480" xml:space="preserve">
<g>
	<g>
		<g>
			<g>
				<path fill="#FCE147" d="M423.8,246.1c-1.2,0-2.3,0-3.4,0c-2,26-6.1,43.8-11.9,60.2c-7.5,20.9-15.9,41.9-50.7,62.5
					c7.3-0.9,22.3-0.9,42.5-19.7c24.2-22.5,35.7-56.7,37.1-100.6C434.2,247.1,429.2,246.2,423.8,246.1"/>
			</g>
			<g>
				<path fill="#FCE147" d="M252.5,234.5c8.5,4.2,15.4,8,23.8,14.4c7.9,5.9,22.8,18.5,33.5,35.9c11.3,17.5,17.8,38.7,18.7,59.6
					c10.8-26.6,13.1-60.2,5.4-92.8c-0.1-0.6-0.3-1.1-0.4-1.7c-6.2-24-20.7-43.6-31.7-55.7c-10.2-11.2-21.9-20.9-33.6-27.9
					c-8.2-4.9-15-7.7-20.6-8.5c-11,15.1-16.5,37.7-16.7,69C237.5,228.1,244.8,230.7,252.5,234.5"/>
			</g>
			<g>
				<path fill="#FCE147" d="M317,182.9c5,6,9.5,12.3,13.4,18.7c8.2,11.8,16,26.3,20.3,43c0.2,0.6,0.3,1.3,0.5,1.9
					c6.3,26.7,6.7,57.3,0.8,82.1c11.3-21.5,16.4-52.6,15.6-87.8c0,0,0-0.1,0-0.1c-0.1-6.3-0.6-12.9-1.3-19.7
					c-2.7-24.3-8.9-48.4-18.1-69.8c-8.1-19-19.5-35.4-31.1-44.8c-13.1,10.7-24.6,27.3-32.4,46.7C296,160.9,307.2,171.1,317,182.9"/>
			</g>
			<g>
				<path fill="#FCE147" d="M215,241c-3.8,0-7.3,0.6-10.4,1.8c-7.3,30.1,9.3,76.9,28.8,100.2c16.3,19.4,45,33.5,68.3,33.5
					c2.9,0,5.8-0.2,8.4-0.7c0-0.1,0.2-0.2,0.2-0.2c0-0.1,0.1-0.1,0.1-0.1c6.3-26.1,0.7-56.8-14.4-80.3c-9.8-15.9-23.5-27.5-30.8-33
					c-7.8-5.9-14.3-9.5-22.2-13.4c-8.9-4.4-17-7-24-7.7C217.6,241.1,216.3,241,215,241"/>
			</g>
			<g>
				<path fill="#FCE147" d="M394.4,148c-6,1.8-19.6,8.7-25.4,12l1,3.2c7.1,22.2,14.4,45.2,14.8,68.3c0.1,6.8,0,13.5-0.5,19.7
					c-0.5,7.3-0.4,14-2,25c-1.6,11.1-7.2,53.6-24.6,73.2c18.7-10,32.2-30,43-67.5c5-19.2,7.3-31.5,8.6-57.6
					C409.1,192.6,404.2,167.6,394.4,148"/>
			</g>
		</g>
		<g>
			<g>
				<path fill="#FCE147" d="M111.9,192.4l-3.6,12.8l-8.8-2.5l10-35.6l8.8,2.5l-3.6,12.8l36.2,10.2l-2.8,9.9L111.9,192.4z"/>
				<path fill="#FCE147" d="M158.8,133.9c9.7,5.3,13.6,15.2,7.3,26.5c-6.3,11.4-16.7,13.3-26.4,8l-25.1-13.9l5-9l24.8,13.7
					c5,2.8,10.8,1.4,13.4-3.4c2.6-4.7,0.7-10.3-4.3-13.1L128.7,129l5-9L158.8,133.9z"/>
				<path fill="#FCE147" d="M155.5,93.6l5.9-6.2l47.9,17.6l-8,8.4l-10-3.9l-12.5,13.1l4.5,9.7l-7.8,8.2L155.5,93.6z M168.1,100.1
					l6.6,14.1l7.9-8.3L168.1,100.1z"/>
				<path fill="#FCE147" d="M186.4,65.2l8.6-5.7l20.6,31L231.5,80l5.3,7.9l-24.5,16.3L186.4,65.2z"/>
				<path fill="#FCE147" d="M237.5,36.8l8-3l35.6,36.5l-10.9,4.1l-7.3-7.8L246,73l-0.1,10.6l-10.6,4L237.5,36.8z M246,48.1
					l-0.1,15.6l10.7-4.1L246,48.1z"/>
				<path fill="#FCE147" d="M280.9,33.5l-13.1,2.2l-1.5-9l36.5-6.1l1.5,9L291,31.8l6.2,37.1l-10.2,1.7L280.9,33.5z"/>
				<path fill="#FCE147" d="M313.3,20.6l10.3-0.2l0.7,46.8L314,67.4L313.3,20.6z"/>
				<path fill="#FCE147" d="M340.2,20.2l13.8,2.5l13.8,35.5l0.1,0l5.7-32l10.1,1.8l-8.3,46l-13.3-2.4l-14.2-36.4l-0.1,0L342.1,68
					l-10.1-1.8L340.2,20.2z"/>
				<path fill="#FCE147" d="M423.9,43.8l8.7,5.4l-9.2,14.8l17,10.6l9.2-14.8l8.7,5.4L433.7,105l-8.7-5.4l10.7-17.1l-17-10.6L408,89
					l-8.7-5.5L423.9,43.8z"/>
				<path fill="#FCE147" d="M470.4,76.1l7.6,6.9l-31.5,34.5l-7.6-7L470.4,76.1z"/>
				<path fill="#FCE147" d="M488.8,93.7l6.5,8l-28.8,23.6l12.1,14.8l-7.4,6l-18.6-22.7L488.8,93.7z"/>
				<path fill="#FCE147" d="M514.3,127.3l4.9,9.1l-32.7,17.8l9.1,16.8l-8.3,4.6l-14.1-25.8L514.3,127.3z"/>
				<path fill="#FCE147" d="M529.2,190.5c1.5-2.2,1.5-5.6,0.7-8c-0.9-2.8-3.3-6.2-6.7-5.2c-8.1,2.6,3.6,21.5-12.1,26.4
					c-9.9,3.1-17.2-3.4-20.1-12.6c-1.8-5.7-1.7-11.3,0.9-16.8l9.9,4.6c-2,2.8-2.6,6.6-1.5,9.9c1,3.2,3.7,6.3,6.8,5.3
					c8.2-2.6-2.8-22.1,12.1-26.8c9.5-3,17.1,3.7,19.8,12.5c1.6,5,1.8,10.3-0.4,15.1L529.2,190.5z"/>
			</g>
			<g>
				<path fill="#FCE147" d="M136.5,228l-0.5,11c-0.3,6.1-2.4,11.1-9.4,10.8c-6.9-0.3-8.8-5.1-8.6-11.3l0.2-4.7l-11.5-0.5l0.3-6.5
					L136.5,228z M123.7,234l-0.2,4.3c-0.1,2.3,0.6,4.6,3.3,4.7c3,0.1,3.6-2.9,3.7-5.4l0.1-3.3L123.7,234z"/>
				<path fill="#FCE147" d="M136.4,259.7l0.5,5.4l-28.3,15.4l-0.7-7.3l6-3.1l-1-11.4l-6.4-1.9l-0.6-7.2L136.4,259.7z M128.1,262.9
					l-9.5-2.8l0.6,7.2L128.1,262.9z"/>
				<path fill="#FCE147" d="M138.6,279.1l2.7,11.1c1.4,5.9,0.6,11.3-6.1,12.9c-4,1-7.6-0.4-9.4-4.3L115.5,309l-1.8-7.6l10-8.8
					l-0.8-3.1l-11.5,2.8l-1.5-6.3L138.6,279.1z M128.2,288.3l0.9,3.7c0.6,2.3,1.4,5.3,4.5,4.5c2.9-0.7,2.7-3.4,2.1-5.7l-1-4.1
					L128.2,288.3z"/>
				<path fill="#FCE147" d="M144.8,303.9l2.4,6l-11.4,4.6l15.7,6l3.2,7.9l-17.7-7l-9.3,19.1l-3.4-8.4l8.5-16.4l-13,5.3l-2.4-6
					L144.8,303.9z"/>
				<path fill="#FCE147" d="M157.3,346.6c0.6-1.6,0.1-3.7-0.7-5.1c-0.9-1.6-2.9-3.4-4.8-2.3c-4.6,2.7,5.2,12.7-3.8,17.9
					c-5.7,3.3-11.1,0.3-14.1-5c-1.9-3.3-2.6-6.7-1.8-10.4l6.7,1.4c-0.8,2-0.7,4.4,0.4,6.3c1.1,1.8,3.1,3.4,4.9,2.3
					c4.7-2.7-4.8-13.2,3.7-18.2c5.4-3.2,11-0.1,13.9,4.9c1.7,2.9,2.5,6.1,1.9,9.4L157.3,346.6z"/>
				<path fill="#FCE147" d="M172.2,390.6l-0.8,9.6l-5.4-6l0.4-3.7c-3.5-0.1-6.1-1.5-8.4-4.1c-3.6-4-4.8-9.7-0.4-13.7
					c2.8-2.5,7-2.5,10.2-0.7c0.3-2.8,0.6-4.9,2.8-6.9c4-3.6,8.6-1.7,11.7,1.8c3,3.4,4,7.9,0.3,11.2c-2.6,2.3-6.2,2.2-9.4,1.1
					l-0.5,5.5l4.8-0.5l4.9,5.4L172.2,390.6z M167.8,377.2c-1.8-0.5-3.7-1.2-5.4,0.3c-1.6,1.4-1.4,3.9,0,5.4c1.3,1.4,2.9,1.8,4.7,2
					L167.8,377.2z M174.6,369.9c-1.1,1-1.1,3-1.1,4.3c1.4,0.5,3.8,1.1,5.1-0.1c1.3-1.1,1.1-2.8,0-3.9
					C177.5,369,175.8,368.8,174.6,369.9z"/>
				<path fill="#FCE147" d="M203.7,388.9l9.2,6.7c4.9,3.5,7.8,8.2,3.8,13.8c-2.4,3.3-6.1,4.6-9.9,2.8l-1.2,14.5l-6.3-4.6l1.9-13.2
					l-2.6-1.9l-6.9,9.6l-5.3-3.8L203.7,388.9z M201.8,402.6l3.1,2.3c1.9,1.4,4.5,3.1,6.4,0.5c1.7-2.4-0.2-4.3-2.1-5.7l-3.5-2.5
					L201.8,402.6z"/>
				<path fill="#FCE147" d="M224.6,403.6l17.7,9.5l-2.8,5.3l-12-6.4l-2.6,4.9l11.3,6l-2.8,5.3l-11.3-6l-2.8,5.3l12.6,6.8l-2.8,5.3
					l-18.4-9.8L224.6,403.6z"/>
				<path fill="#FCE147" d="M261.2,428.6c-0.7-1.9-2.1-3.4-4.4-4.2c-4.6-1.7-9.4,0.8-11.3,6c-1.9,5.2,0.1,10.2,4.5,11.8
					c2.5,0.9,4.9,0.6,6.8-0.9l3.7,5.7c-3.5,2.4-8,2.5-11.8,1.1c-8.7-3.2-12.9-11.2-9.6-20.1c3.3-8.9,11.7-12.2,20.3-9
					c3.1,1.1,6.6,3.6,7.9,7.5L261.2,428.6z"/>
				<path fill="#FCE147" d="M270.7,423.6l11.2,2.4c5.9,1.3,10.4,4.4,9,11.1c-0.9,4-3.7,6.7-7.9,6.6l4.7,13.8l-7.6-1.6l-3.5-12.8
					l-3.1-0.7l-2.5,11.5l-6.4-1.4L270.7,423.6z M274.5,436.9l3.7,0.8c2.3,0.5,5.4,1.1,6-2.1c0.6-2.9-1.9-3.9-4.2-4.4l-4.2-0.9
					L274.5,436.9z"/>
				<path fill="#FCE147" d="M295.7,428.6l20,1.5l-0.5,6l-13.5-1l-0.4,5.5l12.8,1l-0.5,6l-12.8-1l-0.5,6l14.3,1.1l-0.5,6l-20.7-1.6
					L295.7,428.6z"/>
				<path fill="#FCE147" d="M329.9,429.7l5.4-0.4l14.8,28.6l-7.3,0.5l-3-6.1l-11.5,0.8l-2,6.4l-7.2,0.5L329.9,429.7z M333,438.1
					l-3,9.4l7.2-0.5L333,438.1z"/>
				<path fill="#FCE147" d="M353.2,432.8l-8.3,1.6l-1.1-5.7l22.9-4.5l1.1,5.6l-8.3,1.6l4.5,23.3l-6.4,1.2L353.2,432.8z"/>
				<path fill="#FCE147" d="M368.5,423.5l6.2-1.8L383,450l-6.2,1.8L368.5,423.5z"/>
				<path fill="#FCE147" d="M392,414.5c8.5-3.6,17-0.7,20.7,8c3.7,8.7-0.1,16.9-8.5,20.5c-8.5,3.6-17,0.7-20.7-8
					C379.7,426.3,383.5,418.1,392,414.5z M401.8,437.5c5.1-2.2,6.9-7.3,4.7-12.3c-2.2-5.1-7.1-7.3-12.2-5.1
					c-5.1,2.2-6.9,7.3-4.7,12.4C391.8,437.4,396.7,439.7,401.8,437.5z"/>
				<path fill="#FCE147" d="M409,407.6l7.4-4.8l21.7,10.3l0.1,0l-11.2-17.2l5.5-3.6l16.2,24.7l-7.1,4.7l-22.3-10.5l-0.1,0l11.5,17.6
					l-5.5,3.6L409,407.6z"/>
				<path fill="#FCE147" d="M444.7,381.9l6.7-7.1c6.6-6.9,15-9.9,22.8-2.5c6.9,6.6,5.3,15.8-0.8,22.2l-7.3,7.7L444.7,381.9z
					 M466.2,393.3l2.3-2.4c4.2-4.4,5.6-9.3,0.8-13.9c-4.2-4-9.4-2.5-13.1,1.5l-2.6,2.8L466.2,393.3z"/>
				<path fill="#FCE147" d="M465.2,359l3.9-5.2l23.6,17.8l-3.9,5.2L465.2,359z"/>
				<path fill="#FCE147" d="M486.1,341c-1.7,0.2-3.3,1.7-4.1,3c-1,1.6-1.6,4.2,0.3,5.3c4.6,2.8,8.7-10.6,17.6-5.2
					c5.6,3.5,5.5,9.6,2.3,14.8c-2,3.2-4.7,5.5-8.3,6.5l-1.9-6.6c2.2-0.2,4.2-1.5,5.3-3.4c1.1-1.8,1.5-4.4-0.3-5.5
					c-4.6-2.8-9.4,10.5-17.8,5.4c-5.4-3.3-5.3-9.7-2.3-14.6c1.7-2.8,4.2-5.1,7.4-6.1L486.1,341z"/>
				<path fill="#FCE147" d="M491.9,326.7l-3.5,7.7l-5.3-2.4l9.6-21.3l5.2,2.4l-3.5,7.7l21.7,9.8l-2.7,5.9L491.9,326.7z"/>
				<path fill="#FCE147" d="M493.4,308.7l3.3-10.9c1.7-5.8,5.2-10.1,11.8-8.1c3.9,1.2,6.4,4.2,5.9,8.4l14.1-3.6l-2.2,7.5l-13.1,2.5
					l-0.9,3.1l11.3,3.4l-1.9,6.2L493.4,308.7z M507,305.9l1.1-3.7c0.7-2.3,1.5-5.3-1.6-6.2c-2.8-0.8-4,1.6-4.7,3.9l-1.2,4.1
					L507,305.9z"/>
				<path fill="#FCE147" d="M500.3,283.2l1.2-6.4l29,5.5l-1.2,6.4L500.3,283.2z"/>
				<path fill="#FCE147" d="M511.8,253.1c-1.6,1.2-2.7,3-2.9,5.4c-0.4,4.9,3.3,8.8,8.8,9.3c5.5,0.4,9.8-2.9,10.1-7.6
					c0.2-2.6-0.8-4.8-2.7-6.3l4.5-5.1c3.3,2.7,4.6,7,4.3,11c-0.7,9.2-7.3,15.4-16.7,14.7c-9.4-0.7-14.9-7.9-14.2-17.1
					c0.3-3.3,1.7-7.4,5.1-9.6L511.8,253.1z"/>
				<path fill="#FCE147" d="M509.7,237.6l0.5,8.4l-5.8,0.3l-1.4-23.3l5.7-0.3l0.5,8.4l23.7-1.4l0.4,6.5L509.7,237.6z"/>
			</g>
		</g>
	</g>
</g>
</svg>
